<?xml version="1.0" encoding="utf-8"?>
<!-- Generator: Adobe Illustrator 22.0.1, SVG Export Plug-In . SVG Version: 6.00 Build 0)  -->
<svg version="1.1" id="Layer_1" xmlns="http://www.w3.org/2000/svg" xmlns:xlink="http://www.w3.org/1999/xlink" x="0px" y="0px"
	 viewBox="0 0 213 115" style="enable-background:new 0 0 213 115;" xml:space="preserve">
<style type="text/css">
	.st0{fill:#FBBF14;}
	.st1{fill:#010101;}
	.st2{fill:#273238;}
</style>
<path class="st0" d="M197.8,22.4c0-0.2,0-0.5,0-0.7c-0.2,0.1-0.2-0.1-0.2-0.2c-0.5-2.6-1.5-4.9-3.2-6.9c-1.9-2.3-4.3-3.9-7.1-4.9
	c-1.4-0.5-3-0.7-4.5-0.7c-50.7,0-101.3,0-152,0c-2.7,0-5.2,0.8-7.5,2.2c-2.6,1.6-4.6,3.8-5.9,6.7c-0.5,1.1-0.9,2.3-1.1,3.6
	c0,0.2,0,0.2-0.2,0.3c0,0.2,0,0.5,0,0.7c0,0,0.1,0,0.1,0c0,0-0.1,0.1-0.1,0.1c0,21.3,0,42.6,0,63.8c0,0,0.1,0.1,0.1,0.1
	c0,0.1,0,0.1-0.1,0c0,0.3,0,0.5,0,0.8c0.2-0.1,0.2,0,0.2,0.2c0.4,2.3,1.3,4.3,2.6,6.2c1.2,1.7,2.7,3.1,4.5,4.1
	c1.9,1.2,3.9,1.8,6.1,2.1c0.6,0.1,1.2,0.1,1.8,0.1c50.5,0,101,0,151.5,0c3.4,0,6.5-1.1,9.2-3.2c2-1.5,3.4-3.4,4.5-5.6
	c0.6-1.2,1-2.4,1.2-3.7c0-0.2,0-0.2,0.2-0.3c0-0.3,0-0.5,0-0.8c0,0-0.1,0-0.1,0c0,0,0.1-0.1,0.1-0.1c0-21.3,0-42.6,0-63.8
	C197.7,22.5,197.7,22.5,197.8,22.4C197.7,22.4,197.7,22.4,197.8,22.4z"/>
<g>
	<g>
		<path class="st1" d="M16,22.4C16,22.4,16.1,22.4,16,22.4c0.1,0.1,0,0.1,0,0.1C16,22.5,16,22.4,16,22.4z"/>
		<path class="st1" d="M197.8,22.5C197.7,22.5,197.7,22.5,197.8,22.5c-0.1-0.1,0-0.1,0-0.1C197.8,22.4,197.8,22.5,197.8,22.5z"/>
		<path class="st1" d="M16,86.4C16,86.4,16.1,86.4,16,86.4c0.1,0.1,0,0.1,0,0.1C16,86.4,16,86.4,16,86.4z"/>
		<path class="st1" d="M197.8,86.5C197.7,86.5,197.7,86.5,197.8,86.5c-0.1-0.1,0-0.1,0-0.1C197.8,86.4,197.8,86.4,197.8,86.5z"/>
		<path class="st0" d="M120.2,52.4c0-5.4,0-10.8,0-16.2c0-0.5,0.1-0.6,0.6-0.6c1.1,0,2.2,0,3.2,0.5c0.8,0.4,1.1,1,1.1,1.8
			c0,9.6,0,19.2,0,28.8c0,1.6-0.9,2.2-2.1,2.5c-0.8,0.2-1.5,0.1-2.3,0.1c-0.4,0-0.5-0.1-0.5-0.5c0-1.8,0-3.6,0-5.4
			C120.2,59.7,120.2,56.1,120.2,52.4z"/>
		<path class="st0" d="M157.7,56.1c0-4.3,0-8.7,0-13c0-1.2,0.5-1.3,1.1-1.4c0.9-0.1,1.4,0.3,1.7,1.2c0.1,0.3,0.1,0.7,0.1,1
			c0,8.6,0,17.3,0,25.9c0,0.9-0.2,1.2-0.9,1.4c-0.7,0.2-1.2,0-1.6-0.6c-0.3-0.4-0.4-0.8-0.4-1.3C157.7,64.8,157.7,60.4,157.7,56.1z"
			/>
		<path class="st2" d="M82.2,51.5c0.4-1.8,0.5-3.5,0.8-5.3c0.2-1.4,0.3-2.7,0.5-4.1c0.2-1.3,0.4-2.6,0.5-3.9c0.1-1,0.2-2,0.4-3
			c0.1-1.1,0.2-2.1,0.4-3.2c0.2-1,0.3-2.1,0.4-3.1c0.1-0.9,0-0.9,0.9-0.9c5.1,0,10.2,0,15.3,0c0.5,0,0.6,0.1,0.6,0.6
			c0,16.4,0,32.8,0,49.2c0,0.4-0.1,0.6-0.5,0.6c-3.2,0-6.4,0-9.6,0c-0.5,0-0.6-0.1-0.6-0.6c0-8.7,0-17.5,0-26.2c0-0.2,0-0.4,0-0.6
			c0,0-0.1,0-0.1,0c-0.4,2.1-0.7,4.1-1.1,6.2c-0.3,1.8-0.7,3.7-1,5.5c-0.3,1.8-0.6,3.7-0.9,5.5c-0.3,1.6-0.6,3.2-0.8,4.8
			c-0.3,1.7-0.6,3.3-0.9,5c-0.1,0.4-0.2,0.5-0.6,0.5c-2.3,0-4.5,0-6.8,0c-0.2,0-0.4,0-0.4-0.3c-0.4-2.6-0.9-5.2-1.4-7.8
			c-0.5-2.7-1-5.3-1.5-8c-0.5-2.8-0.9-5.6-1.5-8.4c-0.2-1-0.3-2-0.6-3.1c0,0.2,0,0.4,0,0.6c0,8.8,0,17.6,0,26.4
			c0,0.5-0.1,0.7-0.6,0.7c-3.3,0-6.6,0-9.8,0c-0.5,0-0.6-0.1-0.6-0.6c0-16.4,0-32.8,0-49.2c0-0.4,0.1-0.6,0.5-0.6
			c4.7,0,9.4,0,14.1,0c0.3,0,0.5,0,0.6,0.4c0.3,2.1,0.7,4.2,1.1,6.3c0.4,2.3,0.8,4.5,1.2,6.8c0.3,1.9,0.6,3.7,0.9,5.6
			C81.7,48.6,82,50.1,82.2,51.5z"/>
		<path class="st2" d="M108.4,52.8c0-8.1,0-16.1,0-24.2c0-0.6,0.2-0.7,0.7-0.7c5.4,0,10.7,0,16.1,0c2.3,0,4.6,0.1,6.8,1
			c1.8,0.8,3.6,1.7,4.8,3.4c0.8,1.1,1.2,2.4,1.5,3.8c0.3,1.7,0.2,3.3,0.2,5c0,9,0,18,0,27c0,2.4-0.8,4.6-2.7,6.2
			c-1.3,1.1-2.9,1.8-4.5,2.2c-2.2,0.6-4.5,0.9-6.8,0.9c-5.2,0.2-10.3,0-15.5,0.1c-0.5,0-0.4-0.3-0.4-0.6
			C108.4,69,108.4,60.9,108.4,52.8z M120.2,52.4c0,3.7,0,7.3,0,11c0,1.8,0,3.6,0,5.4c0,0.4,0.1,0.5,0.5,0.5c0.8,0,1.5,0,2.3-0.1
			c1.2-0.3,2.1-0.9,2.1-2.5c0-9.6,0-19.2,0-28.8c0-0.9-0.4-1.4-1.1-1.8c-1-0.5-2.1-0.4-3.2-0.5c-0.5,0-0.6,0.1-0.6,0.6
			C120.2,41.6,120.2,47,120.2,52.4z"/>
		<path class="st2" d="M156.9,39.3c1.9-1.3,3.9-2.5,6.1-3.1c2.8-0.7,5.2-0.1,7.4,1.7c1.6,1.3,2.4,3,2.4,5.1c0,9.9,0,19.8,0,29.7
			c0,2.8-2.2,4.6-4.3,5c-1.5,0.3-3,0.3-4.5,0.2c-1.5-0.1-2.9-0.6-4.3-1.1c-1.1-0.4-2.3-0.8-3.5-1.1c-0.5-0.1-0.7,0.1-0.9,0.4
			c-0.3,0.6-0.5,1.2-0.6,1.8c-0.1,0.3-0.2,0.4-0.5,0.4c-3.3,0-6.6,0-9.9,0c-0.3,0-0.4-0.1-0.4-0.3c0-0.1,0-0.2,0-0.3
			c0-16.3,0-32.6,0-49c0-0.6,0.1-0.7,0.7-0.7c3.8,0,7.6,0,11.4,0c0.7,0,0.7,0,0.7,0.8C156.9,32.2,156.9,35.7,156.9,39.3z
			 M157.7,56.1c0,4.4,0,8.7,0,13.1c0,0.5,0.1,0.9,0.4,1.3c0.4,0.6,1,0.8,1.6,0.6c0.7-0.2,0.9-0.5,0.9-1.4c0-8.6,0-17.3,0-25.9
			c0-0.4,0-0.7-0.1-1c-0.3-0.8-0.8-1.3-1.7-1.2c-0.6,0.1-1.1,0.3-1.1,1.4C157.7,47.4,157.7,51.7,157.7,56.1z"/>
		<path class="st2" d="M44.7,53.1c0-8.2,0-16.4,0-24.5c0-0.5,0.1-0.6,0.6-0.6c3.6,0,7.1,0,10.7,0c0.5,0,0.5,0.1,0.5,0.6
			c0,16.4,0,32.8,0,49.2c0,0.5-0.1,0.6-0.6,0.6c-3.6,0-7.1,0-10.7,0c-0.5,0-0.6-0.1-0.6-0.6C44.7,69.5,44.7,61.3,44.7,53.1z"/>
	</g>
</g>
</svg>
